<?xml version="1.0" encoding="utf-8"?>
<!-- Uploaded to: SVG Repo, www.svgrepo.com, Generator: SVG Repo Mixer Tools -->
<svg fill="#FFFFFF" height="800px" width="800px" version="1.2" baseProfile="tiny" id="Layer_1" xmlns="http://www.w3.org/2000/svg" xmlns:xlink="http://www.w3.org/1999/xlink"
	  viewBox="0 0 256 256" xml:space="preserve">
<path d="M241.2,26H15.6c-7.1,0-13,5.9-13,13v149.4c0,7.1,5.9,13,13,13h81.6v21.8H76.4c-3.6,0-6.6,3-6.6,6.6v0.9c0,3.6,3,6.6,6.6,6.6
	h104.1c3.6,0,6.6-3,6.6-6.6v-0.9c0-3.6-3-6.6-6.6-6.6h-20.8v-21.8h81.6c7.1,0,13-5.9,13-13V39C254.2,31.8,248.3,26,241.2,26z
	 M120.9,186c0-4.2,3.4-7.5,7.5-7.5c4.2,0,7.5,3.4,7.5,7.5c0,4.2-3.4,7.5-7.5,7.5C124.2,193.7,120.9,190.3,120.9,186z M238.3,172.7
	H19.2V42.2h219.1V172.7z"/>
</svg>