<?xml version="1.0" encoding="utf-8"?>
<!-- Generator: Adobe Illustrator 24.3.0, SVG Export Plug-In . SVG Version: 6.00 Build 0)  -->
<!DOCTYPE svg PUBLIC "-//W3C//DTD SVG 1.0//EN" "http://www.w3.org/TR/2001/REC-SVG-20010904/DTD/svg10.dtd" [
	<!ENTITY ns_extend "http://ns.adobe.com/Extensibility/1.0/">
	<!ENTITY ns_ai "http://ns.adobe.com/AdobeIllustrator/10.0/">
	<!ENTITY ns_graphs "http://ns.adobe.com/Graphs/1.0/">
	<!ENTITY ns_vars "http://ns.adobe.com/Variables/1.0/">
	<!ENTITY ns_imrep "http://ns.adobe.com/ImageReplacement/1.0/">
	<!ENTITY ns_sfw "http://ns.adobe.com/SaveForWeb/1.0/">
	<!ENTITY ns_custom "http://ns.adobe.com/GenericCustomNamespace/1.0/">
	<!ENTITY ns_adobe_xpath "http://ns.adobe.com/XPath/1.0/">
]>
<svg version="1.0" id="Layer_1" xmlns:x="&ns_extend;" xmlns:i="&ns_ai;" xmlns:graph="&ns_graphs;"
	 xmlns="http://www.w3.org/2000/svg" xmlns:xlink="http://www.w3.org/1999/xlink" x="0px" y="0px"
	 viewBox="0 0 530.9730835 551.9857788" enable-background="new 0 0 530.9730835 551.9857788" xml:space="preserve">
<metadata>
	<sfw  xmlns="&ns_sfw;">
		<slices></slices>
		<sliceSourceBounds  bottomLeftOrigin="true" height="451.9038086" width="463.3438721" x="114.9167099" y="-781.0410156">
			</sliceSourceBounds>
	</sfw>
</metadata>
<g>
	<path fill-rule="evenodd" clip-rule="evenodd" fill="#FFFFFF" d="M265.4865417,50.0410004
		c-127.9311981,0-231.671936,103.7180939-231.671936,231.6719513c0,102.3580627,66.380661,189.197876,158.4318085,219.8331604
		c11.5767517,2.1430054,15.8290253-5.0276184,15.8290253-11.1459351c0-5.5221252-0.2136841-23.7749939-0.3145752-43.1331177
		c-64.4509125,14.0155334-78.0509796-27.3344421-78.0509796-27.3344421
		c-10.53862-26.7762146-25.7231293-33.8984985-25.7231293-33.8984985
		c-21.0216064-14.3788757,1.5844345-14.0830688,1.5844345-14.0830688
		c23.2620773,1.6335449,35.5132523,23.8766479,35.5132523,23.8766479
		c20.6617584,35.4154358,54.196579,25.1764526,67.4179993,19.2568665
		c2.0793304-14.9712219,8.0813904-25.1952515,14.708786-30.9797668
		c-51.4581451-5.855896-105.5538101-25.7235107-105.5538101-114.493042c0-25.2922974,9.0516205-45.9598083,23.8728256-62.1839752
		c-2.405426-5.8370972-10.336441-29.3987885,2.2442932-61.3115845c0,0,19.4552002-6.2230377,63.7239075,23.750824
		c18.4815216-5.1342621,38.300415-7.7080994,57.9880981-7.7982635c19.6880798,0.0901642,39.5219116,2.6640015,58.0372009,7.7982635
		c44.2196045-29.9738617,63.6452637-23.750824,63.6452637-23.750824c12.6106567,31.912796,4.6792603,55.4744873,2.274231,61.3115845
		c14.85495,16.2241669,23.8424988,36.8916779,23.8424988,62.1839752c0,88.9832153-54.1965637,108.5734558-105.7859192,114.3092651
		c8.3096619,7.1898193,15.7127991,21.2878418,15.7127991,42.9014282c0,30.9981689-0.2658691,55.9463501-0.2658691,63.5777283
		c0,6.1666565,4.1697998,13.3902283,15.9111328,11.1159973c92.0028381-30.6690369,158.3005981-117.4789124,158.3005981-219.8032227
		C497.1584778,153.7590942,393.4331055,50.0410004,265.4865417,50.0410004z"/>
	<path fill="#FFFFFF" d="M121.561348,382.6699829c-0.5094757,1.1539917-2.3229446,1.4984741-3.9710693,0.7077942
		c-1.6822662-0.7565308-2.6225662-2.3263855-2.0793304-3.4803772c0.4980011-1.1839294,2.3114319-1.5134583,3.9898605-0.723175
		C121.183075,379.9311523,122.1421814,381.5159912,121.561348,382.6699829L121.561348,382.6699829z M118.7101288,380.5568848"/>
	<path fill="#FFFFFF" d="M130.9463501,393.1376038c-1.1052704,1.0227966-3.2670441,0.5470886-4.7318192-1.0715027
		c-1.5173035-1.6147461-1.7981262-3.7765503-0.6782837-4.8143005c1.1390305-1.0227966,3.2333298-0.5432434,4.7506332,1.0715027
		C131.8041687,389.9568481,132.1003418,392.0998535,130.9463501,393.1376038L130.9463501,393.1376038z M128.7358093,390.7659302"/>
	<path fill="#FFFFFF" d="M140.0804596,406.4787292c-1.4202423,0.9890137-3.7427979,0.0636902-5.1776123-1.9968567
		c-1.4202423-2.0605469-1.4202423-4.5331116,0.033371-5.5221252c1.4351959-0.9890137,3.723999-0.0974426,5.178009,1.9443054
		C141.5302429,402.9983215,141.5302429,405.4708862,140.0804596,406.4787292L140.0804596,406.4787292z M140.0804596,406.4787292"/>
	<path fill="#FFFFFF" d="M152.5936737,419.3706055c-1.2702332,1.4010315-3.9752502,1.0227661-5.9533386-0.8881531
		c-2.0267792-1.8656311-2.5888062-4.5181274-1.318573-5.9191895c1.2886505-1.4014282,4.008667-1.0078125,6.0016785,0.8877563
		C153.3352509,415.3166504,153.9460144,417.9841309,152.5936737,419.3706055L152.5936737,419.3706055z M152.5936737,419.3706055"/>
	<path fill="#FFFFFF" d="M169.8575134,426.8558044c-0.562027,1.8134766-3.1657562,2.6375427-5.7883759,1.8660278
		c-2.6225586-0.7944946-4.3347473-2.9187317-3.8064728-4.7506104c0.5432281-1.8284302,3.1619568-2.6862488,5.8033295-1.8621826
		C168.6847229,422.8997192,170.4007568,425.0089722,169.8575134,426.8558044L169.8575134,426.8558044z M169.8575134,426.8558044"/>
	<path fill="#FFFFFF" d="M188.8185883,428.2422791c0.0636902,1.910553-2.1618195,3.4953613-4.9155884,3.5291138
		c-2.7687378,0.0636902-5.0126495-1.4835205-5.042572-3.3645325c0-1.9293213,2.1763916-3.4953308,4.9451294-3.5440674
		C186.5593262,424.8102417,188.8185883,426.346344,188.8185883,428.2422791L188.8185883,428.2422791z M188.8185883,428.2422791"/>
	<path fill="#FFFFFF" d="M206.4606934,425.2410583c0.3295593,1.8622131-1.5848083,3.7765808-4.3197937,4.2860413
		c-2.6900482,0.4945068-5.1776123-0.6590881-5.5221252-2.5063171c-0.3333893-1.9105225,1.6147461-3.8252869,4.3009949-4.3197937
		C203.6582031,422.2252808,206.1123505,423.3454895,206.4606934,425.2410583L206.4606934,425.2410583z M206.4606934,425.2410583"/>
</g>
</svg>
